<svg width="58" height="58" viewBox="0 0 58 58" fill="none" xmlns="http://www.w3.org/2000/svg">
<rect width="58" height="58" rx="10" fill="#FFDE00"/>
<path fill-rule="evenodd" clip-rule="evenodd" d="M32.875 12.8229H26.96C24.2796 12.8229 22.1563 12.8229 20.4952 13.046C18.786 13.2764 17.4021 13.7606 16.3098 14.8514C15.219 15.9437 14.7348 17.3277 14.5044 19.0368C14.2813 20.6993 14.2812 22.8212 14.2812 25.5016V34.3333C14.2813 35.6362 14.7464 36.8963 15.5928 37.8868C16.4392 38.8773 17.6114 39.5332 18.8983 39.7364C19.0981 40.8506 19.4846 41.8014 20.2575 42.5758C21.1354 43.4537 22.2408 43.83 23.5533 44.0079C24.8177 44.177 26.4262 44.177 28.4198 44.177H32.9552C34.9488 44.177 36.5573 44.177 37.8217 44.0079C39.1342 43.83 40.2396 43.4537 41.1175 42.5758C41.9954 41.6979 42.3717 40.5925 42.5496 39.28C42.7188 38.0156 42.7188 36.407 42.7188 34.4135V26.9614C42.7188 24.9679 42.7188 23.3593 42.5496 22.095C42.3717 20.7825 41.9954 19.677 41.1175 18.7991C40.3431 18.0262 39.3923 17.6398 38.2781 17.44C38.0749 16.153 37.419 14.9808 36.4285 14.1344C35.438 13.288 34.1779 12.8229 32.875 12.8229ZM35.9812 17.2285C35.7595 16.581 35.3408 16.019 34.7838 15.6213C34.2268 15.2236 33.5594 15.01 32.875 15.0104H27.0417C24.2606 15.0104 22.286 15.0133 20.7854 15.2145C19.3198 15.4114 18.474 15.7818 17.8571 16.3987C17.2402 17.0156 16.8698 17.8614 16.6729 19.3285C16.4717 20.8277 16.4688 22.8023 16.4688 25.5833V34.3333C16.4683 35.0177 16.6819 35.6851 17.0797 36.2421C17.4774 36.7991 18.0394 37.2178 18.6869 37.4395C18.6562 36.55 18.6562 35.5437 18.6562 34.4135V26.9614C18.6562 24.9679 18.6563 23.3593 18.8269 22.095C19.0019 20.7825 19.381 19.677 20.2575 18.7991C21.1354 17.9212 22.2408 17.545 23.5533 17.3685C24.8177 17.1979 26.4262 17.1979 28.4198 17.1979H32.9552C34.0854 17.1979 35.0917 17.1979 35.9812 17.2285ZM21.8033 20.3479C22.2073 19.9439 22.7731 19.6814 23.845 19.537C24.9446 19.3898 26.4058 19.3868 28.4985 19.3868H32.8735C34.9662 19.3868 36.426 19.3898 37.5285 19.537C38.599 19.6814 39.1648 19.9454 39.5688 20.3479C39.9727 20.7518 40.2352 21.3177 40.3796 22.3895C40.5269 23.4891 40.5298 24.9504 40.5298 27.0431V34.3348C40.5298 36.4275 40.5269 37.8873 40.3796 38.9898C40.2352 40.0602 39.9713 40.626 39.5688 41.03C39.1648 41.4339 38.599 41.6964 37.5271 41.8408C36.426 41.9881 34.9662 41.991 32.8735 41.991H28.4985C26.4058 41.991 24.9446 41.9881 23.8435 41.8408C22.7731 41.6964 22.2073 41.4325 21.8033 41.03C21.3994 40.626 21.1369 40.0602 20.9925 38.9883C20.8452 37.8873 20.8423 36.4275 20.8423 34.3348V27.0431C20.8423 24.9504 20.8452 23.4891 20.9925 22.3881C21.1369 21.3177 21.4008 20.7518 21.8033 20.3479Z" fill="black"/>
</svg>
