<svg width="17" height="15" viewBox="0 0 17 15" fill="none" xmlns="http://www.w3.org/2000/svg">
<g clip-path="url(#clip0_114_287)">
<path d="M8.49989 2.73731L7.73808 2.00319C5.94989 0.279951 2.67101 0.874619 1.48739 3.04112C0.931701 4.06013 0.806326 5.53136 1.82101 7.40899C2.79851 9.2169 4.83214 11.3824 8.49989 13.7412C12.1676 11.3824 14.2002 9.2169 15.1788 7.40899C16.1935 5.53036 16.0691 4.06013 15.5124 3.04112C14.3288 0.874619 11.0499 0.278955 9.2617 2.0022L8.49989 2.73731ZM8.49989 14.9415C-7.79143 4.84903 3.48383 -3.02808 8.31289 1.13858C8.37664 1.19337 8.43933 1.25015 8.49989 1.30892C8.55984 1.2502 8.62222 1.19371 8.68689 1.13958C13.5149 -3.03007 24.7912 4.84804 8.49989 14.9415Z" fill="#F34040"/>
</g>
<defs>
<clipPath id="clip0_114_287">
<rect width="17" height="15" fill="white"/>
</clipPath>
</defs>
</svg>
