<svg width="50" height="50" viewBox="0 0 50 50" fill="none" xmlns="http://www.w3.org/2000/svg">
<path d="M45.8008 22.3399L36.9922 30.0274L39.6309 41.4728C39.7705 42.0711 39.7307 42.6973 39.5164 43.2731C39.302 43.8489 38.9227 44.3488 38.4258 44.7102C37.929 45.0716 37.3366 45.2785 36.7228 45.305C36.1089 45.3316 35.5009 45.1766 34.9747 44.8595L24.9922 38.8048L15.0313 44.8595C14.5051 45.1766 13.897 45.3316 13.2832 45.305C12.6694 45.2785 12.077 45.0716 11.5801 44.7102C11.0832 44.3488 10.7039 43.8489 10.4896 43.2731C10.2753 42.6973 10.2354 42.0711 10.375 41.4728L13.0098 30.0392L4.19926 22.3399C3.73326 21.938 3.3963 21.4075 3.23062 20.8148C3.06495 20.2222 3.07793 19.5938 3.26796 19.0085C3.45798 18.4232 3.81658 17.907 4.29879 17.5247C4.781 17.1424 5.36535 16.911 5.97856 16.8595L17.5918 15.8536L22.125 5.04111C22.3618 4.47376 22.7611 3.98914 23.2727 3.64826C23.7843 3.30738 24.3853 3.12549 25 3.12549C25.6148 3.12549 26.2158 3.30738 26.7274 3.64826C27.239 3.98914 27.6383 4.47376 27.875 5.04111L32.4219 15.8536L44.0313 16.8595C44.6445 16.911 45.2289 17.1424 45.7111 17.5247C46.1933 17.907 46.5519 18.4232 46.7419 19.0085C46.9319 19.5938 46.9449 20.2222 46.7792 20.8148C46.6136 21.4075 46.2766 21.938 45.8106 22.3399H45.8008Z" fill="white"/>
</svg>
