<svg width="50" height="50" viewBox="0 0 50 50" fill="none" xmlns="http://www.w3.org/2000/svg">
<path d="M46.7187 19.0021C46.5295 18.4188 46.1729 17.9041 45.6933 17.5221C45.2137 17.1401 44.6323 16.9076 44.0215 16.8536L32.4219 15.8536L27.875 5.04111C27.6383 4.47376 27.239 3.98914 26.7274 3.64826C26.2158 3.30738 25.6148 3.12549 25 3.12549C24.3852 3.12549 23.7842 3.30738 23.2726 3.64826C22.761 3.98914 22.3617 4.47376 22.125 5.04111L17.5918 15.8536L5.97851 16.8595C5.3653 16.911 4.78095 17.1424 4.29874 17.5247C3.81654 17.907 3.45794 18.4232 3.26791 19.0085C3.07789 19.5938 3.0649 20.2222 3.23058 20.8148C3.39625 21.4075 3.73322 21.938 4.19922 22.3399L13.0098 30.0392L10.3691 41.4728C10.2295 42.0711 10.2693 42.6973 10.4837 43.2731C10.698 43.8489 11.0773 44.3488 11.5742 44.7102C12.0711 45.0716 12.6635 45.2785 13.2773 45.305C13.8911 45.3316 14.4992 45.1766 15.0254 44.8595L24.9863 38.8048L34.9687 44.8595C35.495 45.1766 36.103 45.3316 36.7168 45.305C37.3307 45.2785 37.9231 45.0716 38.4199 44.7102C38.9168 44.3488 39.2961 43.8489 39.5104 43.2731C39.7248 42.6973 39.7646 42.0711 39.625 41.4728L36.9863 30.0274L45.7949 22.3399C46.2609 21.9366 46.5972 21.4046 46.7615 20.8107C46.9259 20.2168 46.911 19.5875 46.7187 19.0021ZM43.7461 19.9786L34.9375 27.6661C34.5088 28.039 34.1899 28.5218 34.015 29.0624C33.8402 29.6031 33.8161 30.1811 33.9453 30.7345L36.5918 42.1876L26.6172 36.1329C26.1305 35.8366 25.5717 35.6798 25.0019 35.6798C24.4322 35.6798 23.8734 35.8366 23.3867 36.1329L13.4258 42.1876L16.0547 30.7423C16.1839 30.189 16.1598 29.6109 15.985 29.0702C15.8101 28.5296 15.4912 28.0468 15.0625 27.6739L6.25 19.9903C6.24928 19.9845 6.24928 19.9786 6.25 19.9728L17.8594 18.9689C18.4262 18.9189 18.9686 18.7151 19.4281 18.3795C19.8876 18.0439 20.2467 17.5893 20.4668 17.0646L25 6.26572L29.5312 17.0646C29.7513 17.5893 30.1105 18.0439 30.57 18.3795C31.0295 18.7151 31.5719 18.9189 32.1387 18.9689L43.75 19.9728V19.9864L43.7461 19.9786Z" fill="white"/>
</svg>
