<svg width="288" height="57" viewBox="0 0 288 57" fill="none" xmlns="http://www.w3.org/2000/svg">
<rect width="288" height="57" rx="10" fill="url(#paint0_linear_50_27)"/>
<path d="M30.6975 27.2C30.3238 26.7125 29.8688 26.29 29.4463 25.8675C28.3575 24.8925 27.1225 24.1938 26.0825 23.17C23.6613 20.7975 23.125 16.8813 24.6688 13.875C23.125 14.2488 21.7763 15.0938 20.6225 16.02C16.4138 19.4 14.7563 25.3638 16.7388 30.4825C16.8038 30.645 16.8688 30.8075 16.8688 31.0188C16.8688 31.3763 16.625 31.7013 16.3 31.8313C15.9263 31.9937 15.5363 31.8962 15.2275 31.6362C15.1347 31.5595 15.0575 31.4658 15 31.36C13.1638 29.0363 12.8713 25.705 14.1063 23.04C11.3925 25.25 9.91375 28.9875 10.125 32.5138C10.2225 33.3263 10.32 34.1388 10.5963 34.9513C10.8238 35.9263 11.2625 36.9013 11.75 37.7625C13.505 40.5738 16.5438 42.5888 19.81 42.995C23.2875 43.4338 27.0088 42.8 29.6738 40.395C32.6475 37.6975 33.6875 33.375 32.16 29.67L31.9488 29.2475C31.6075 28.5 30.6975 27.2 30.6975 27.2ZM25.5625 37.4375C25.1075 37.8275 24.36 38.25 23.775 38.4125C21.955 39.0625 20.135 38.1525 19.0625 37.08C20.9963 36.625 22.15 35.195 22.4913 33.7487C22.7675 32.4487 22.2475 31.3762 22.0363 30.125C21.8413 28.9225 21.8738 27.8987 22.3125 26.7775C22.6213 27.395 22.9463 28.0125 23.3363 28.5C24.5875 30.125 26.5538 30.84 26.9763 33.05C27.0413 33.2775 27.0738 33.505 27.0738 33.7487C27.1225 35.0812 26.5375 36.5438 25.5625 37.4375Z" fill="white"/>
<path d="M41.784 40V17.6H46.936V32.192L57.624 17.6H62.488V40H57.368V25.44L46.68 40H41.784ZM83.4253 17.6H88.6093V40H83.4253V17.6ZM73.2493 40H68.0653V17.6H73.2493V40ZM83.8093 30.816H72.8653V26.432H83.8093V30.816ZM99.0535 40V20.64L100.238 21.824H91.9175V17.6H111.342V21.824H103.022L104.174 20.64V40H99.0535ZM119.365 26.624H130.149V30.656H119.365V26.624ZM119.749 35.84H131.941V40H114.597V17.6H131.525V21.76H119.749V35.84ZM136.128 40V17.6H145.824C147.829 17.6 149.557 17.9307 151.008 18.592C152.458 19.232 153.578 20.16 154.368 21.376C155.157 22.592 155.552 24.0427 155.552 25.728C155.552 27.392 155.157 28.832 154.368 30.048C153.578 31.264 152.458 32.2027 151.008 32.864C149.557 33.504 147.829 33.824 145.824 33.824H139.008L141.312 31.488V40H136.128ZM141.312 32.064L139.008 29.6H145.536C147.136 29.6 148.33 29.2587 149.12 28.576C149.909 27.8933 150.304 26.944 150.304 25.728C150.304 24.4907 149.909 23.5307 149.12 22.848C148.33 22.1653 147.136 21.824 145.536 21.824H139.008L141.312 19.36V32.064ZM163.74 26.624H174.524V30.656H163.74V26.624ZM164.124 35.84H176.316V40H158.972V17.6H175.9V21.76H164.124V35.84ZM191.095 40.384C189.367 40.384 187.756 40.1067 186.263 39.552C184.791 38.976 183.511 38.1653 182.423 37.12C181.335 36.0747 180.481 34.848 179.863 33.44C179.265 32.032 178.967 30.4853 178.967 28.8C178.967 27.1147 179.265 25.568 179.863 24.16C180.481 22.752 181.335 21.5253 182.423 20.48C183.532 19.4347 184.823 18.6347 186.295 18.08C187.767 17.504 189.377 17.216 191.127 17.216C193.068 17.216 194.817 17.5573 196.375 18.24C197.953 18.9013 199.276 19.8827 200.343 21.184L197.015 24.256C196.247 23.3813 195.393 22.7307 194.455 22.304C193.516 21.856 192.492 21.632 191.383 21.632C190.337 21.632 189.377 21.8027 188.503 22.144C187.628 22.4853 186.871 22.976 186.231 23.616C185.591 24.256 185.089 25.0133 184.727 25.888C184.385 26.7627 184.215 27.7333 184.215 28.8C184.215 29.8667 184.385 30.8373 184.727 31.712C185.089 32.5867 185.591 33.344 186.231 33.984C186.871 34.624 187.628 35.1147 188.503 35.456C189.377 35.7973 190.337 35.968 191.383 35.968C192.492 35.968 193.516 35.7547 194.455 35.328C195.393 34.88 196.247 34.208 197.015 33.312L200.343 36.384C199.276 37.6853 197.953 38.6773 196.375 39.36C194.817 40.0427 193.057 40.384 191.095 40.384ZM219.082 17.6H224.266V40H219.082V17.6ZM208.906 40H203.722V17.6H208.906V40ZM219.466 30.816H208.522V26.432H219.466V30.816ZM240.598 40.384C238.827 40.384 237.184 40.096 235.67 39.52C234.176 38.944 232.875 38.1333 231.766 37.088C230.678 36.0427 229.824 34.816 229.206 33.408C228.608 32 228.31 30.464 228.31 28.8C228.31 27.136 228.608 25.6 229.206 24.192C229.824 22.784 230.688 21.5573 231.798 20.512C232.907 19.4667 234.208 18.656 235.702 18.08C237.195 17.504 238.816 17.216 240.566 17.216C242.336 17.216 243.958 17.504 245.43 18.08C246.923 18.656 248.214 19.4667 249.302 20.512C250.411 21.5573 251.275 22.784 251.894 24.192C252.512 25.5787 252.822 27.1147 252.822 28.8C252.822 30.464 252.512 32.0107 251.894 33.44C251.275 34.848 250.411 36.0747 249.302 37.12C248.214 38.144 246.923 38.944 245.43 39.52C243.958 40.096 242.347 40.384 240.598 40.384ZM240.566 35.968C241.568 35.968 242.486 35.7973 243.318 35.456C244.171 35.1147 244.918 34.624 245.558 33.984C246.198 33.344 246.688 32.5867 247.03 31.712C247.392 30.8373 247.574 29.8667 247.574 28.8C247.574 27.7333 247.392 26.7627 247.03 25.888C246.688 25.0133 246.198 24.256 245.558 23.616C244.939 22.976 244.203 22.4853 243.35 22.144C242.496 21.8027 241.568 21.632 240.566 21.632C239.563 21.632 238.635 21.8027 237.782 22.144C236.95 22.4853 236.214 22.976 235.574 23.616C234.934 24.256 234.432 25.0133 234.07 25.888C233.728 26.7627 233.558 27.7333 233.558 28.8C233.558 29.8453 233.728 30.816 234.07 31.712C234.432 32.5867 234.923 33.344 235.542 33.984C236.182 34.624 236.928 35.1147 237.782 35.456C238.635 35.7973 239.563 35.968 240.566 35.968ZM261.583 26.624H272.367V30.656H261.583V26.624ZM261.967 35.84H274.159V40H256.815V17.6H273.743V21.76H261.967V35.84Z" fill="#EEEEEE"/>
<defs>
<linearGradient id="paint0_linear_50_27" x1="2.14577e-06" y1="57" x2="288" y2="1.30946e-05" gradientUnits="userSpaceOnUse">
<stop stop-color="#EA5455"/>
<stop offset="1" stop-color="#FF1C1D"/>
</linearGradient>
</defs>
</svg>
