<svg width="56" height="57" viewBox="0 0 56 57" fill="none" xmlns="http://www.w3.org/2000/svg">
<path d="M27.64 1C12.3827 1 0 13.3827 0 28.64C0 43.8973 12.3827 56.28 27.64 56.28C42.8973 56.28 55.28 43.8973 55.28 28.64C55.28 13.3827 42.8973 1 27.64 1ZM40.465 19.7952C40.0504 24.1623 38.2538 34.7761 37.3416 39.6684C36.9547 41.7414 36.1808 42.4324 35.4621 42.5153C33.859 42.6535 32.6428 41.465 31.095 40.4423C28.6627 38.8392 27.2807 37.8441 24.9313 36.2963C22.1949 34.4997 23.9639 33.5046 25.5394 31.9015C25.954 31.4869 33.0298 25.0468 33.168 24.4664C33.1872 24.3784 33.1846 24.2872 33.1606 24.2005C33.1365 24.1138 33.0916 24.0343 33.0298 23.9688C32.864 23.8306 32.6428 23.8859 32.4494 23.9136C32.2006 23.9688 28.331 26.5394 20.7853 31.6251C19.6797 32.3714 18.6846 32.7584 17.8002 32.7307C16.8051 32.7031 14.9256 32.1779 13.516 31.708C11.7746 31.1552 10.4203 30.8512 10.5308 29.8838C10.5861 29.3863 11.2771 28.8888 12.5762 28.3636C20.6471 24.8533 26.0092 22.5316 28.6903 21.426C36.3742 18.2197 37.9497 17.6669 39 17.6669C39.2212 17.6669 39.7463 17.7222 40.078 17.9986C40.3544 18.2197 40.4373 18.5238 40.465 18.7449C40.4373 18.9107 40.4926 19.4082 40.465 19.7952Z" fill="black"/>
</svg>
