<svg width="56" height="56" viewBox="0 0 56 56" fill="none" xmlns="http://www.w3.org/2000/svg">
<path d="M27.9518 1.41748C13.2971 1.41748 1.41742 13.2972 1.41742 27.9519C1.41742 42.6066 13.2971 54.4863 27.9518 54.4863C42.6065 54.4863 54.4862 42.6066 54.4862 27.9519C54.4862 13.2972 42.6065 1.41748 27.9518 1.41748ZM38.1565 31.3544C38.1565 31.3544 40.5031 33.6706 41.0808 34.7458C41.0974 34.7679 41.1057 34.79 41.1112 34.8011C41.3462 35.1963 41.4014 35.5031 41.2854 35.7325C41.0919 36.114 40.4285 36.3019 40.2019 36.3185H36.0559C35.7684 36.3185 35.1659 36.2439 34.4362 35.7408C33.8751 35.3483 33.3223 34.7043 32.7833 34.0769C31.979 33.1427 31.2824 32.3356 30.5804 32.3356C30.4912 32.3354 30.4026 32.3494 30.3178 32.377C29.7871 32.5484 29.1072 33.3057 29.1072 35.3235C29.1072 35.9537 28.6097 36.3157 28.2586 36.3157H26.3598C25.713 36.3157 22.3437 36.0891 19.3585 32.9409C15.7045 29.0851 12.4154 21.3514 12.3877 21.2796C12.1804 20.7793 12.6089 20.5112 13.076 20.5112H17.2634C17.8218 20.5112 18.0042 20.8512 18.1313 21.1524C18.2806 21.5035 18.8279 22.8993 19.7262 24.4692C21.1828 27.0287 22.0756 28.068 22.7914 28.068C22.9257 28.0664 23.0575 28.0322 23.1756 27.9685C24.1099 27.4488 23.9357 24.1182 23.8943 23.4272C23.8943 23.2973 23.8915 21.9374 23.4133 21.2851C23.0706 20.8125 22.4874 20.6328 22.1336 20.5665C22.2768 20.3689 22.4655 20.2087 22.6836 20.0994C23.3249 19.7787 24.4802 19.7317 25.6273 19.7317H26.2658C27.5096 19.7483 27.8302 19.8285 28.2807 19.9418C29.1929 20.1602 29.2122 20.7489 29.132 22.7639C29.1072 23.336 29.0823 23.9828 29.0823 24.7456C29.0823 24.9115 29.074 25.0884 29.074 25.2763C29.0464 26.3018 29.0132 27.4654 29.7374 27.9436C29.8318 28.0028 29.941 28.0344 30.0525 28.0348C30.304 28.0348 31.0613 28.0348 33.1122 24.5162C33.7447 23.3837 34.2943 22.2068 34.7568 20.9949C34.7982 20.923 34.9199 20.7019 35.0636 20.6162C35.1697 20.5621 35.2873 20.5346 35.4063 20.5361H40.329C40.8652 20.5361 41.2328 20.6162 41.3019 20.8235C41.4236 21.1524 41.2798 22.1558 39.0327 25.1989L38.0294 26.5229C35.9923 29.1929 35.9923 29.3284 38.1565 31.3544Z" fill="black"/>
</svg>
