<svg width="59" height="57" viewBox="0 0 59 57" fill="none" xmlns="http://www.w3.org/2000/svg">
<path d="M34.2288 28.0242L27.6031 25.0374C27.0249 24.778 26.55 25.0687 26.55 25.6872V31.3131C26.55 31.9315 27.0249 32.2222 27.6031 31.9629L34.2259 28.9761C34.807 28.7139 34.807 28.2864 34.2288 28.0242ZM29.5 1.14014C13.8591 1.14014 1.17999 13.3894 1.17999 28.5001C1.17999 43.6108 13.8591 55.8601 29.5 55.8601C45.1409 55.8601 57.82 43.6108 57.82 28.5001C57.82 13.3894 45.1409 1.14014 29.5 1.14014ZM29.5 39.6151C15.0037 39.6151 14.75 38.3526 14.75 28.5001C14.75 18.6477 15.0037 17.3851 29.5 17.3851C43.9963 17.3851 44.25 18.6477 44.25 28.5001C44.25 38.3526 43.9963 39.6151 29.5 39.6151Z" fill="black"/>
</svg>
